Lil Wayne - Tha Carter IV - FLAC
 
http://ligg.org/images/FCIJY.jpg

[b]Year[/b]: 2011
[b]Country[/b]: USA
[b]Genre[/b]: Hip-Hop/Rap
[b]Time duration[/b]: 60:32

[b]Codec[/b]: FLAC (*.flac)
[b]Type[/b]: tracks+.cue
[b]Ripping Software[/b]: Exact Audio Copy V0.99
[b]Bitrate[/b]: lossless

[b]Information about album[/b]:
Tha Carter IV is the upcoming ninth studio album by American rapper Lil Wayne. The album was originally intended to be released on May 16, 2011, but had its release date rescheduled several times.

[b]Tracklist[/b]:
[b]01.[/b] Intro (2:52)
[b]02.[/b] Blunt Blowin (5:13)
[b]03.[/b] Megaman (3:18)
[b]04.[/b] 6 Foot 7 Foot (Feat. Cory Gunz) (4:09)
[b]05.[/b] Nightmares Of The Bottom (4:41)
[b]06.[/b] She Will (Feat. Drake) (5:06)
[b]07.[/b] How To Hate (Feat. T-Pain) (4:39)
[b]08.[/b] Interlude (Feat. Tech N9ne & André 3000) (2:01)
[b]09.[/b] John (Feat. Rick Ross) (4:47)
[b]10.[/b] Abortion (3:44)
[b]11.[/b] So Special (Feat. John Legend) (3:52)
[b]12.[/b] How To Love (4:00)
[b]13.[/b] President Carter (4:15)
[b]14.[/b] Its Good (Feat. Jadakiss & Drake) (4:01)
[b]15.[/b] Outro (Feat. Bun B, Nas, Shyne & Busta Rhymes) (3:53) 


Log from ripping software EAC
Exact Audio Copy V0.99 prebeta 5 from 4. May 2009
EAC extraction logfile from 26. August 2011, 18:51
Lil Wayne / Tha Carter IV
Used drive  : hp      DVD RW AD-7586H   Adapter: 1  ID: 0
Read mode               : Secure
Utilize accurate stream : Yes
Defeat audio cache      : Yes
Make use of C2 pointers : No
Read offset correction                      : 6
Overread into Lead-In and Lead-Out          : No
Fill up missing offset samples with silence : Yes
Delete leading and trailing silent blocks   : No
Null samples used in CRC calculations       : Yes
Used interface                              : Native Win32 interface for Win NT & 2000
Gap handling                                : Appended to previous track
Used output format              : User Defined Encoder
Selected bitrate                : 320 kBit/s
Quality                         : High
Add ID3 tag                     : No
Command line compressor         : C:\Program Files (x86)\Exact Audio Copy\Flac\flac.exe
Additional command line options : -V -8 -T "artist=%a" -T "title=%t" -T "album=%g" -T "date=%y" -T "tracknumber=%n" -T "genre=%m" %s
TOC of the extracted CD
     Track |   Start  |  Length  | Start sector | End sector
    ---------------------------------------------------------
        1  |  0:00.00 |  2:52.04 |         0    |    12903
        2  |  2:52.04 |  5:12.72 |     12904    |    36375
        3  |  8:05.01 |  3:18.21 |     36376    |    51246
        4  | 11:23.22 |  4:08.44 |     51247    |    69890
        5  | 15:31.66 |  4:41.06 |     69891    |    90971
        6  | 20:12.72 |  5:05.63 |     90972    |   113909
        7  | 25:18.60 |  4:38.39 |    113910    |   134798
        8  | 29:57.24 |  2:01.17 |    134799    |   143890
        9  | 31:58.41 |  4:46.73 |    143891    |   165413
       10  | 36:45.39 |  3:43.69 |    165414    |   182207
       11  | 40:29.33 |  3:52.07 |    182208    |   199614
       12  | 44:21.40 |  4:00.23 |    199615    |   217637
       13  | 48:21.63 |  4:15.28 |    217638    |   236790
       14  | 52:37.16 |  4:01.35 |    236791    |   254900
       15  | 56:38.51 |  3:52.24 |    254901    |   272324
Track  1
     Filename C:\EACrips\Lil Wayne - 2011 - Tha Carter IV\01 - Track01.wav
     Pre-gap length  0:00:02.00
     Peak level 100.0 %
     Track quality 100.0 %
     Test CRC F9AB2BB5
     Copy CRC F9AB2BB5
     Track not present in AccurateRip database
     Copy OK
Track  2
     Filename C:\EACrips\Lil Wayne - 2011 - Tha Carter IV\02 - Track02.wav
     Peak level 100.0 %
     Track quality 100.0 %
     Test CRC 32072B12
     Copy CRC 32072B12
     Track not present in AccurateRip database
     Copy OK
Track  3
     Filename C:\EACrips\Lil Wayne - 2011 - Tha Carter IV\03 - Track03.wav
     Peak level 100.0 %
     Track quality 100.0 %
     Test CRC 77788150
     Copy CRC 77788150
     Track not present in AccurateRip database
     Copy OK
Track  4
     Filename C:\EACrips\Lil Wayne - 2011 - Tha Carter IV\04 - Track04.wav
     Peak level 100.0 %
     Track quality 100.0 %
     Test CRC 19E8F144
     Copy CRC 19E8F144
     Track not present in AccurateRip database
     Copy OK
Track  5
     Filename C:\EACrips\Lil Wayne - 2011 - Tha Carter IV\05 - Track05.wav
     Peak level 99.9 %
     Track quality 100.0 %
     Test CRC 5088E991
     Copy CRC 5088E991
     Track not present in AccurateRip database
     Copy OK
Track  6
     Filename C:\EACrips\Lil Wayne - 2011 - Tha Carter IV\06 - Track06.wav
     Peak level 100.0 %
     Track quality 99.9 %
     Test CRC DA3B93D8
     Copy CRC DA3B93D8
     Track not present in AccurateRip database
     Copy OK
Track  7
     Filename C:\EACrips\Lil Wayne - 2011 - Tha Carter IV\07 - Track07.wav
     Peak level 90.7 %
     Track quality 100.0 %
     Test CRC FF640414
     Copy CRC FF640414
     Track not present in AccurateRip database
     Copy OK
Track  8
     Filename C:\EACrips\Lil Wayne - 2011 - Tha Carter IV\08 - Track08.wav
     Peak level 99.8 %
     Track quality 100.0 %
     Test CRC 96DFC83A
     Copy CRC 96DFC83A
     Track not present in AccurateRip database
     Copy OK
Track  9
     Filename C:\EACrips\Lil Wayne - 2011 - Tha Carter IV\09 - Track09.wav
     Peak level 100.0 %
     Track quality 100.0 %
     Test CRC 238281FF
     Copy CRC 238281FF
     Track not present in AccurateRip database
     Copy OK
Track 10
     Filename C:\EACrips\Lil Wayne - 2011 - Tha Carter IV\10 - Track10.wav
     Peak level 100.0 %
     Track quality 100.0 %
     Test CRC 297D6AD3
     Copy CRC 297D6AD3
     Track not present in AccurateRip database
     Copy OK
Track 11
     Filename C:\EACrips\Lil Wayne - 2011 - Tha Carter IV\11 - Track11.wav
     Peak level 100.0 %
     Track quality 99.9 %
     Test CRC 40D138E3
     Copy CRC 40D138E3
     Track not present in AccurateRip database
     Copy OK
Track 12
     Filename C:\EACrips\Lil Wayne - 2011 - Tha Carter IV\12 - Track12.wav
     Peak level 100.0 %
     Track quality 100.0 %
     Test CRC 8527F3D8
     Copy CRC 8527F3D8
     Track not present in AccurateRip database
     Copy OK
Track 13
     Filename C:\EACrips\Lil Wayne - 2011 - Tha Carter IV\13 - Track13.wav
     Peak level 100.0 %
     Track quality 99.9 %
     Test CRC BB9EAE4F
     Copy CRC BB9EAE4F
     Track not present in AccurateRip database
     Copy OK
Track 14
     Filename C:\EACrips\Lil Wayne - 2011 - Tha Carter IV\14 - Track14.wav
     Peak level 100.0 %
     Track quality 100.0 %
     Test CRC 4030452B
     Copy CRC 4030452B
     Track not present in AccurateRip database
     Copy OK
Track 15
     Filename C:\EACrips\Lil Wayne - 2011 - Tha Carter IV\15 - Track15.wav
     Peak level 100.0 %
     Track quality 100.0 %
     Test CRC 396F3CBB
     Copy CRC 396F3CBB
     Track not present in AccurateRip database
     Copy OK
None of the tracks are present in the AccurateRip database
No errors occurred
End of status report


Index of .CUE
REM DATE 2011
REM DISCID C60E2F0F
REM COMMENT "ExactAudioCopy v0.99pb5"
PERFORMER "Lil Wayne"
TITLE "Tha Carter IV"
FILE "01 Intro.wav" WAVE
  TRACK 01 AUDIO
    TITLE "Intro"
    PERFORMER "Lil Wayne"
    INDEX 01 00:00:00
FILE "02 Blunt Blowin.wav" WAVE
  TRACK 02 AUDIO
    TITLE "Blunt Blowin"
    PERFORMER "Lil Wayne"
    INDEX 01 00:00:00
FILE "03 Megaman.wav" WAVE
  TRACK 03 AUDIO
    TITLE "Megaman"
    PERFORMER "Lil Wayne"
    INDEX 01 00:00:00
FILE "04 6 Foot 7 Foot.wav" WAVE
  TRACK 04 AUDIO
    TITLE "6 Foot 7 Foot"
    PERFORMER "Lil Wayne"
    INDEX 01 00:00:00
FILE "05 Nightmares Of The Bottom.wav" WAVE
  TRACK 05 AUDIO
    TITLE "Nightmares Of The Bottom"
    PERFORMER "Lil Wayne"
    INDEX 01 00:00:00
FILE "06 She Will.wav" WAVE
  TRACK 06 AUDIO
    TITLE "She Will"
    PERFORMER "Lil Wayne"
    INDEX 01 00:00:00
FILE "07 How To Hate.wav" WAVE
  TRACK 07 AUDIO
    TITLE "How To Hate"
    PERFORMER "Lil Wayne"
    INDEX 01 00:00:00
FILE "08 Interlude.wav" WAVE
  TRACK 08 AUDIO
    TITLE "Interlude"
    PERFORMER "Lil Wayne"
    INDEX 01 00:00:00
FILE "09 John.wav" WAVE
  TRACK 09 AUDIO
    TITLE "John"
    PERFORMER "Lil Wayne"
    INDEX 01 00:00:00
FILE "10 Abortion.wav" WAVE
  TRACK 10 AUDIO
    TITLE "Abortion"
    PERFORMER "Lil Wayne"
    INDEX 01 00:00:00
FILE "11 So Special.wav" WAVE
  TRACK 11 AUDIO
    TITLE "So Special"
    PERFORMER "Lil Wayne"
    INDEX 01 00:00:00
FILE "12 How To Love.wav" WAVE
  TRACK 12 AUDIO
    TITLE "How To Love"
    PERFORMER "Lil Wayne"
    INDEX 01 00:00:00
FILE "President Carter.wav" WAVE
  TRACK 13 AUDIO
    TITLE "President Carter"
    PERFORMER "Lil Wayne"
    INDEX 01 00:00:00
FILE "14 Its Good.wav" WAVE
  TRACK 14 AUDIO
    TITLE "Its Good"
    PERFORMER "Lil Wayne"
    INDEX 01 00:00:00
FILE "15 Outro.wav" WAVE
  TRACK 15 AUDIO
    TITLE "Outro"
    PERFORMER "Lil Wayne"
    INDEX 01 00:00:00